<svg xmlns="http://www.w3.org/2000/svg" viewBox="0 0 24 24" role="img" aria-label="Shiprocket">
  <rect width="24" height="24" rx="5" fill="#6C2BD9"/>
  <path fill="#FFFFFF" d="M12.9 3.4c2.8.4 5.1 2.6 5.7 5.4.2 1.1.1 2.2-.3 3.2l1.3 1.8c.25.35.15.85-.2 1.05-.4.25-.9.1-1.1-.25l-.85-1.2c-.9.95-2.1 1.6-3.4 1.85l-.7 2.85c-.1.4-.5.65-.9.55-.4-.1-.65-.5-.55-.9l.55-2.25c-.95-.35-1.8-.95-2.45-1.7L7.4 16.5c-.25.4-.8.5-1.15.2-.35-.3-.4-.85-.1-1.15l1.85-1.85c-.55-.85-.85-1.85-.85-2.9 0-2.65 1.9-4.9 4.45-5.4.35-.05.7-.05 1.05 0l.25-2zm-.35 5.35a1.65 1.65 0 1 0 0 3.3 1.65 1.65 0 0 0 0-3.3zM7.2 17.8l1.1 1.1-1.85 1.85c-.3.3-.8.25-1.05-.1-.25-.35-.2-.8.1-1.05L7.2 17.8z"/>
</svg>
